<?xml version="1.0" encoding="UTF-8"?>
<svg width="24" height="24" viewBox="0 0 24 24" fill="none" xmlns="http://www.w3.org/2000/svg">
    <path d="M12 2C6.48 2 2 6.48 2 12C2 17.52 6.48 22 12 22C17.52 22 22 17.52 22 12C22 6.48 17.52 2 12 2ZM16.5 8.7C16.57 9.71 16.57 12.3 16.5 13.31C16.42 14.47 16.13 15.54 15.31 16.36C14.54 17.13 13.38 17.42 12.31 17.5C11.3 17.57 8.7 17.57 7.69 17.5C6.53 17.42 5.46 17.13 4.64 16.31C3.87 15.54 3.58 14.38 3.5 13.31C3.43 12.3 3.43 9.7 3.5 8.69C3.58 7.53 3.87 6.46 4.69 5.64C5.46 4.87 6.62 4.58 7.69 4.5C8.7 4.43 11.3 4.43 12.31 4.5C13.47 4.58 14.54 4.87 15.36 5.69C16.13 6.46 16.42 7.62 16.5 8.7Z" fill="#4A90E2"/>
    <path d="M9 8V16L16 12L9 8Z" fill="#4A90E2"/>
</svg> 