<?xml version="1.0" encoding="UTF-8"?>
<svg width="32" height="32" viewBox="0 0 32 32" fill="none" xmlns="http://www.w3.org/2000/svg">
    <circle cx="16" cy="16" r="14" fill="#FF8200"/>
    <path d="M22 14c-.8-2.4-3.3-3.9-5.7-3.1-.2.1-.5.2-.7.3-.3.1-.4.5-.3.8.1.3.5.4.8.3 1.9-.6 3.9.4 4.5 2.3.2.5.2 1.1.1 1.6-.1.3.1.7.4.8h.2c.3 0 .5-.2.6-.4.2-.8.2-1.7.1-2.6z" fill="white"/>
    <path d="M10 19c0-2.8 2.2-5 5-5s5 2.2 5 5-2.2 5-5 5-5-2.2-5-5zm5 2c1.1 0 2-.9 2-2s-.9-2-2-2-2 .9-2 2 .9 2 2 2z" fill="white"/>
</svg> 