<?xml version="1.0" standalone="no"?><!DOCTYPE svg PUBLIC "-//W3C//DTD SVG 1.1//EN" "http://www.w3.org/Graphics/SVG/1.1/DTD/svg11.dtd"><svg t="1740027676807" class="icon" viewBox="0 0 1024 1024" version="1.1" xmlns="http://www.w3.org/2000/svg" p-id="26090" xmlns:xlink="http://www.w3.org/1999/xlink" width="32" height="32"><path d="M653.323832 512.419066c-27.128358-10.698507-48.336383-28.303386-54.133461-45.76036-21.158723-63.640507 42.810464-114.199583 76.245354-131.91539 55.513914-29.383919 110.97031-3.434697 125.596533 51.791622" fill="#FFA6A6" p-id="26091"></path><path d="M659.350987 497.131375c-26.00674-10.250682-41.121874-25.287755-44.564789-35.645257-21.236784-63.870583 64.671738-110.280083 68.344728-112.215182 22.169411-11.729738 45.012614-13.541582 64.33895-5.082202 18.484096 8.089616 31.869555 24.630396 37.683069 46.57384l31.766843-8.422404c-8.307366-31.372428-28.825165-56.249334-56.273985-68.266667-28.689584-12.555545-61.688974-10.369828-92.897063 6.15041-42.498219 22.522741-108.028631 79.807415-84.150088 151.632033 7.362414 22.152977 31.175221 43.036431 63.698026 55.863136l12.054309-30.587707z" fill="#6E6E96" p-id="26092"></path><path d="M312.163056 171.944407c-22.863746-40.119403-11.142224-101.598844 121.956411-93.086054 67.145049 4.293372 146.258129 78.94874 106.056556 110.407447" fill="#FFDD5F" p-id="26093"></path><path d="M326.440058 163.805489c-4.087947-7.173423-12.510351-25.591783-2.432226-41.729931 7.580164-12.136479 31.824362-31.754518 109.059862-26.812005 43.180228 2.760905 92.186294 39.433285 100.530637 66.405521 2.732146 8.820928-0.402632 12.193998-3.549735 14.654983l20.258963 25.883486c15.476681-12.107719 20.825935-30.427476 14.696068-50.255047-13.175927-42.572171-76.270005-86.064645-129.836495-89.487017-89.552752-5.727235-125.037779 19.790595-139.035404 42.206516-13.500498 21.614765-12.843139 49.807222 1.754326 75.415439l28.554004-16.281945z" fill="#6E6E96" p-id="26094"></path><path d="M463.11308 200.90926c20.636944-13.307398 43.566426-23.052736 62.140908-27.715872 110.682715-27.810368 163.715102 58.833574 148.669812 139.470903-11.060055 59.248532-79.606099 109.121489-139.088814 95.986648" fill="#FFDD5F" p-id="26095"></path><path d="M513.376344 265.387899s72.506628 44.001926 80.164853 80.164853c0 0 119.203723-101.652255 0-157.618103 0 0 66.195988 13.541582 66.195988 105.464934s-77.80658 96.504317-77.80658 96.504317-48.771883-62.186102-78.184561-91.59878l9.6303-32.917221z" fill="#FFCA5F" p-id="26096"></path><path d="M472.016177 214.722003c17.84728-11.511988 39.244295-21.076553 57.23948-25.591783 41.347841-10.390371 75.916675-3.935933 99.955449 18.664869 24.950859 23.463585 35.891767 62.49013 28.545787 101.853571-4.696004 25.148066-22.44468 50.05784-47.490034 66.619162-23.196533 15.349318-49.400481 21.310737-71.898571 16.343573l-7.087145 32.095522c31.142353 6.873503 66.536992-0.784722 97.124699-21.023142 32.313272-21.376472 55.366009-54.277259 61.660215-87.999744 9.379682-50.255047-5.316386-100.76893-38.348644-131.829112-32.136607-30.213834-78.476264-39.655144-130.473311-26.598363-21.598331 5.419098-46.039737 16.298379-67.042337 29.84407l17.814412 27.621377zM630.197143 627.711507c-8.410079 5.295843-206.316033 132.235853-237.109164 352.9316a16.438068 16.438068 0 0 0 32.555674 4.54399c28.648499-205.301236 220.153426-328.440892 222.084416-329.665223l-0.008217 0.008217a16.442176 16.442176 0 0 0-17.522709-27.818584z" fill="#6E6E96" p-id="26097"></path><path d="M392.927748 982.680918a16.433959 16.433959 0 0 1 32.86381 0.238292V539.670679a16.433959 16.433959 0 0 0-32.86381 0V982.915102a16.433959 16.433959 0 0 0 32.86381 0.238292c0.036976-2.304863 0.439608-57.214829-31.553201-127.449462" fill="#6E6E96" p-id="26098"></path><path d="M805.32563 449.288012c23.989472-16.565431 50.415278-24.379779 68.151629-19.466025 64.63887 17.884256 70.990595 99.170727 67.091638 136.804494-6.524282 62.469588-58.965046 94.067983-112.983469 75.456523" fill="#FFA6A6" p-id="26099"></path><path d="M867.043364 428.618199c-17.728134-4.905537-44.162157 2.900594-68.151629 19.466025l22.259798 192.790884c54.022532 18.615567 106.463296-12.982828 112.983469-75.452415 3.903065-37.629658-2.44866-118.924346-67.091638-136.804494z m-14.30987 178.727524l-10.271225-71.898572s24.724892-16.425742 24.650939-61.627347c0 0 63.681592 82.169796-14.379714 133.525919z" fill="#E68A8A" opacity=".56" p-id="26100"></path><path d="M814.668336 462.81316c23.003434-15.88753 43.911539-20.061756 54.425164-17.152945 64.873054 17.937667 55.559108 115.136318 55.131825 119.265351-2.604783 24.942642-13.829177 44.930445-31.614829 56.261659-17.017365 10.846413-38.208955 12.748644-59.663489 5.353362l-10.702616 31.076617c30.68631 10.567036 62.769507 7.395282 88.049045-8.714107 26.409372-16.836591 42.970695-45.452223 46.639576-80.575702 4.963056-47.843364-6.105216-134.170952-79.055561-154.343636-22.49809-6.228471-53.102231 1.918665-81.873984 21.783213l18.664869 27.046188z" fill="#6E6E96" p-id="26101"></path><path d="M223.953779 418.297673c-72.309421-18.212935-144.45861-90.132049-107.022051-163.045418 22.559718-43.911539 87.477965-128.234184 170.867983-101.656363 22.871963 7.284352 46.195859 34.663329 60.596116 69.873086" fill="#FFDD5F" p-id="26102"></path><path d="M479.92502 301.10711c52.34216 36.273857 90.132049 87.440989 94.454181 118.439544 12.469267 89.330894-108.887305 131.151212-200.2026 120.124025-91.307078-11.031295-162.634569-42.198299-151.821024-131.730509 3.681207-30.521971 54.162221-84.47055 104.561066-116.841342" fill="#FFDD5F" p-id="26103"></path><path d="M573.019291 412.697801c-4.32624-30.998556-42.112021-82.165688-94.45829-118.439544l-153.004269-10.016498c-50.407061 32.379008-100.879859 86.327588-104.561065 116.841342-10.813545 89.540427 60.513946 120.707431 151.821024 131.730508 91.311186 11.035404 212.671866-30.784914 200.2026-120.115808z m-189.853314 60.390692c-63.726785-7.69931-108.718857-24.650939-101.171562-87.153394 1.281849-10.571144 13.344375-22.428246 29.474306-34.449687 26.429915 15.879313 93.653025 45.978109 177.692184 7.58838 15.636912 12.284385 26.964019 24.067533 28.541679 35.361772 8.70589 62.350441-70.801605 86.34813-134.536607 78.652929z" fill="#FFCA5F" p-id="26104"></path><path d="M798.22616 513.096967c18.155416 40.485059 27.633702 126.677066 17.551468 147.104477-29.535933 59.926432-86.409758 50.370085-147.50711 20.246638-61.117894-30.123447-119.466667-105.193773-75.579778-155.563858 15.23428-17.481624 59.392329-33.919692 106.566009-35.217975" fill="#FFA6A6" p-id="26105"></path><path d="M798.22616 513.096967l-98.977628-23.438935c-47.165463 1.298283-91.32762 17.736351-106.566009 35.217975-43.886888 50.378302 14.465993 125.440411 75.579778 155.563858 61.097352 30.123447 117.971176 39.679795 147.50711-20.246638 10.090451-20.419194 0.612165-106.602985-17.543251-147.09626z m-121.886568 118.049237c-104.63091-66.278158 10.271225-96.549511 10.271225-96.54951 30.14399 30.148098 84.224041 26.705184 84.224041 26.705184s10.135644 136.122484-94.495266 69.844326z" fill="#E68A8A" opacity=".56" p-id="26106"></path><path d="M783.23428 519.822565c18.097898 40.365912 24.010014 120.551308 17.814412 133.102744-8.303258 16.844808-18.977114 27.284481-32.641952 31.927074-21.528487 7.309003-51.90666 1.047665-92.868303-19.145562-40.242658-19.83168-74.13359-57.588702-80.592136-89.770503-3.147103-15.661563 0.176665-28.829273 10.139753-40.2632 11.577724-13.286856 51.056203-28.385556 94.622628-29.589343l-0.912084-32.855593c-49.215599 1.35991-99.047472 18.541615-118.497063 40.850714-16.643492 19.100369-22.719949 42.724186-17.580228 68.320077 9.843942 49.055368 57.851645 92.860087 98.287401 112.782154 49.860632 24.576986 87.346493 31.187546 117.967068 20.788958 22.025614-7.477451 39.375766-23.800481 51.55333-48.508939 13.611427-27.600835 1.3065-119.577596-17.30085-161.093886l-29.991976 13.455305z" fill="#6E6E96" p-id="26107"></path><path d="M823.111282 488.35975c-19.872765 37.001059-61.886182 37.76113-101.713882 16.360006-39.819483-21.388798-62.399743-56.824523-42.539303-93.817365 19.868657-37.009276 68.266667-49.642882 108.098475-28.249976s56.011042 68.718601 36.15471 105.707335z" fill="#FFFFFF" p-id="26108"></path><path d="M808.632964 480.582378c-5.591655 10.406805-13.233446 16.951629-23.360873 19.99602-15.23428 4.589183-35.160456 0.920302-56.09732-10.33696-13.525148-7.26381-56.06856-33.886824-35.842465-71.565784 7.033735-13.097866 19.104478-22.781576 33.993645-27.268047 16.770855-5.053442 35.669909-2.970438 51.845033 5.723126 31.787386 17.070775 44.99618 54.507334 29.46198 83.451645z m-13.903129-112.404172c-23.796373-12.781512-51.816273-15.784818-76.878062-8.237522-23.299246 7.017301-42.292794 22.350185-53.480211 43.192553-22.682972 42.255818-3.356636 87.81897 49.24025 116.064837 28.67315 15.410945 57.490098 19.975477 81.134457 12.859573 18.373166-5.534136 33.180164-17.949992 42.831006-35.916418 24.120944-44.922228 4.893211-102.321939-42.84744-127.963023z" fill="#6E6E96" p-id="26109"></path><path d="M188.370149 191.90345s-86.537121 78.37766-4.367324 135.896518c0 0 34.852319-50.768609 113.977724-60.308522l5.65739 19.568737S231.176505 353.14935 208.275782 395.939271c0 0-183.986391-68.772011-19.905633-204.035821z" fill="#FFCA5F" p-id="26110"></path><path d="M227.963666 402.360841c-43.048756-10.842305-82.330027-41.031488-97.757407-75.136062-9.868593-21.820189-9.416659-43.504799 1.343476-64.458096 2.555481-4.967164 63.566554-121.455176 151.254053-93.509228 17.645964 5.624523 37.89671 29.913914 50.374193 60.435885l30.419259-12.440507c-16.454502-40.242658-43.586968-70.629048-70.813931-79.310288-90.941422-28.981287-162.519531 55.386551-190.469587 109.811716-15.349318 29.889263-16.060087 62.05463-2.050137 93.024426 19.64269 43.414412 66.615054 80.099117 119.6762 93.459926l8.023881-31.877772z" fill="#6E6E96" p-id="26111"></path><path d="M470.56588 314.611716c49.634665 34.396277 84.088461 82.428631 87.543701 107.202824 3.052608 21.861274-3.615471 41.314974-19.811138 57.814669-32.190018 32.789857-100.382732 51.179458-162.145659 43.726657-62.781833-7.584272-102.991623-23.623816-122.930123-49.034826-13.015696-16.59419-17.769218-37.662526-14.544054-64.412903 2.576023-21.351822 45.571369-71.865704 97.132916-104.996566l-17.76511-27.646028c-51.401316 33.019933-107.346622 90.189568-111.993324 128.70666-4.268721 35.345338 2.904702 65.164757 21.314846 88.640668 25.945113 33.073343 71.980741 52.576344 144.853025 61.372621 59.075975 7.132338 143.579393-6.511956 189.541069-53.324089 23.381416-23.829241 33.385588-53.34874 28.915551-85.382636-5.320494-38.118568-47.958402-92.654662-101.381095-129.676263l-18.730605 27.009212z" fill="#6E6E96" p-id="26112"></path><path d="M412.656716 171.040539c50.596052 4.346782 88.369507 45.957567 84.339079 92.946365-4.022212 46.997015-47.00934 66.487691-97.617718 62.145017-50.604269-4.32624-89.66779-30.834216-85.645578-77.823014 4.034537-47.00934 48.31584-81.594608 98.924217-77.268368z" fill="#FFFFFF" p-id="26113"></path><path d="M411.251613 187.412871c41.499856 3.562061 72.617557 37.280437 69.375959 75.16893-1.162703 13.594993-6.507848 24.486599-15.88753 32.387225-14.088012 11.865319-36.799743 17.115969-63.948644 14.790563-27.161226-2.321297-48.656845-11.359974-60.518055-25.443877-7.896517-9.375574-11.314781-21.023142-10.152078-34.609918 3.23749-37.89671 39.63871-65.838549 81.130348-62.292923zM297.368384 246.899695c-1.906339 22.272123 4.235853 42.531087 17.761001 58.587065 17.522709 20.801284 46.947713 33.948451 82.855914 37.017493 35.899984 3.077259 67.124506-4.876777 87.925791-22.395378 16.055978-13.525148 25.554807-32.444744 27.465254-54.716867 4.790499-55.945306-39.761964-105.612839-99.314524-110.723801-59.556668-5.094527-111.902937 36.282074-116.693436 92.231488z" fill="#6E6E96" p-id="26114"></path><path d="M344.455786 214.574097s-13.915455 55.711122 44.971529 62.559975S477.229851 227.569251 452.948676 203.283967c0 0 49.54017 26.043717 23.821024 75.283968-25.719146 49.236142-130.649976 58.385749-146.652544-2.806099-16.010785-61.18363 14.338629-61.187739 14.33863-61.187739zM693.340523 418.679762s-14.926143 50.181095 69.277355 50.181095 34.256588-60.472861 25.41101-66.101493c0 0 87.798427 78.64882-6.803659 105.243075-94.610303 26.594255-135.107687-75.279859-87.884706-89.322677z" fill="#6E6E96" opacity=".15" p-id="26115"></path><path d="M469.522324 843.201797c135.378848 174.150666 321.431809 38.044616 321.431809 38.044616-183.292056-224.430364-318.21897-39.897545-318.21897-39.897544" fill="#AED98E" p-id="26116"></path><path d="M605.270936 786.459445s-90.308714 35.637041-71.816402 67.457294 235.65065 22.029722 235.65065 22.029722-143.636912 128.160231-283.107816-24.901556c0 0 47.395538-70.941294 119.273568-64.58546z" fill="#A1C983" p-id="26117"></path><path d="M456.547713 853.28814c143.513658 184.61499 342.118055 42.678992 344.106564 41.220478l13.989408-10.230139-10.965559-13.430654c-65.008634-79.60199-132.166009-119.047601-199.598652-117.235756-88.291446 2.358273-142.36328 74.942963-144.62295 78.032547l26.532627 19.400289-0.020542 0.028759c0.464259-0.62449 47.22709-62.855786 119.29411-64.618328 56.635532-1.380453 114.828182 34.001862 172.959204 105.181448l3.023848-23.656684c-7.074819 5.135612-174.960039 124.376312-298.757053-34.864645l-25.941005 20.172685z" fill="#6E6E96" p-id="26118"></path><path d="M408.15792 709.877195s-134.926914-184.53282-318.21897 39.897544c0 0 186.052961 136.10605 321.431809-38.044615" fill="#AED98E" p-id="26119"></path><path d="M394.895715 719.573231c-139.470904 153.061788-283.107816 24.901557-283.107816 24.901556s217.158337 9.790531 235.65065-22.029722-71.816402-67.457294-71.816402-67.457294c71.878029-6.355834 119.273568 64.58546 119.273568 64.58546z" fill="#A1C983" p-id="26120"></path><path d="M398.400257 701.643781c-123.797015 159.245065-291.682234 40.000257-298.757054 34.864645l3.023849 23.656684c58.131022-71.175477 116.323672-106.557792 172.959204-105.177339 72.06702 1.762542 118.829851 63.989729 119.29411 64.618328l-0.020543-0.02876 26.532628-19.400289c-2.259669-3.089584-56.331504-75.674274-144.62295-78.032547-67.432643-1.807736-134.590018 37.633767-199.598652 117.235757l-10.965559 13.430653 13.989407 10.23014c1.988509 1.454405 200.592906 143.390403 344.110673-41.220478l-25.945113-20.176794z" fill="#6E6E96" p-id="26121"></path></svg>